<?xml version="1.0" standalone="no"?>
<!DOCTYPE svg PUBLIC "-//W3C//DTD SVG 20010904//EN"
 "http://www.w3.org/TR/2001/REC-SVG-20010904/DTD/svg10.dtd">
<svg version="1.0" xmlns="http://www.w3.org/2000/svg"
 width="70.000000pt" height="70.000000pt" viewBox="0 0 70.000000 70.000000"
 preserveAspectRatio="xMidYMid meet">
<metadata>
Created by potrace 1.11, written by Peter Selinger 2001-2013
</metadata>
<g transform="translate(0.000000,70.000000) scale(0.100000,-0.100000)"
fill="#000000" stroke="none">
<path d="M254 495 c6 -13 14 -21 18 -19 10 6 10 -8 2 -30 -5 -12 -10 -13 -27
-5 -18 10 -19 9 -12 -7 15 -33 8 -66 -35 -176 -40 -103 -44 -108 -71 -108 -33
0 -39 -19 -10 -27 11 -3 22 -12 24 -22 4 -18 3 -19 28 44 l12 30 7 -35 c11
-62 3 -60 229 -60 l208 0 11 25 c25 54 8 145 -27 145 -16 0 -18 6 -14 43 4 32
1 48 -11 59 -9 9 -16 23 -16 30 0 10 -29 13 -134 12 -142 -1 -151 2 -139 44 4
19 14 20 136 21 72 1 133 4 136 6 2 3 -59 5 -137 5 -128 0 -142 2 -151 19 -6
10 -17 21 -24 24 -12 4 -12 1 -3 -18z m22 -133 c-11 -10 -15 4 -8 28 l7 25 3
-23 c2 -13 1 -26 -2 -30z m222 11 c-27 -2 -69 -2 -95 0 -27 2 -5 3 47 3 52 0
74 -1 48 -3z m72 -42 c7 -14 7 -27 -2 -45 -13 -30 -28 -35 -21 -8 4 16 -1 18
-32 14 -48 -6 -205 8 -205 17 0 9 123 24 188 23 23 -1 42 3 42 8 0 17 19 11
30 -9z m-320 -41 c0 -20 -5 -30 -15 -30 -18 0 -18 1 -5 34 13 34 20 33 20 -4z
m0 -83 c1 -20 2 -20 16 6 l15 27 133 0 c127 0 134 -1 149 -22 l16 -23 0 23 c2
50 51 7 51 -44 0 -37 -25 -58 -41 -33 -6 11 -11 11 -21 1 -8 -8 -55 -12 -155
-12 -140 0 -144 1 -153 23 l-9 22 -7 -23 c-3 -13 -12 -21 -18 -19 -15 5 -20
62 -6 87 13 25 30 18 30 -13z m360 -97 c0 -5 -8 -10 -17 -10 -15 0 -16 2 -3
10 19 12 20 12 20 0z m-370 -10 c0 -5 -2 -10 -4 -10 -3 0 -8 5 -11 10 -3 6 -1
10 4 10 6 0 11 -4 11 -10z m309 6 c-7 -7 -259 -9 -266 -2 -4 3 56 6 132 6 76
0 136 -2 134 -4z"/>
<path d="M137 471 c-4 -17 -3 -21 5 -13 5 5 8 16 6 23 -3 8 -7 3 -11 -10z"/>
<path d="M593 460 c20 -13 23 -50 5 -68 -9 -9 -9 -15 0 -24 16 -16 24 9 20 58
-2 30 -8 40 -23 42 -18 2 -18 2 -2 -8z"/>
<path d="M30 192 c0 -14 28 -47 35 -41 2 3 -5 15 -15 29 -11 14 -20 19 -20 12z"/>
<path d="M96 100 c-18 -6 -18 -7 4 -13 28 -7 32 -6 22 9 -4 6 -16 8 -26 4z"/>
</g>
</svg>
